<!-- icon666.com - MILLIONS vector ICONS FREE --><svg id="Capa_3" enable-background="new 0 0 453.54 453.54" viewBox="0 0 453.54 453.54" xmlns="http://www.w3.org/2000/svg"><g><circle cx="226.77" cy="226.77" fill="#3aaa35" r="226.771"></circle><path d="m129.401 361.134 14.814-47.809c-23.045-21.866-37.439-52.76-37.439-87.035 0-66.271 53.723-119.995 119.994-119.995 31.075 0 59.391 11.813 80.702 31.192l28.167 24.647c24.296 21.959 39.569 53.716 39.569 89.044 0 66.271-53.723 119.993-119.994 119.993-16.856 0-32.892-3.49-47.447-9.764l-49.922 24.614z" fill="#297a25"></path><g><path d="m226.77 91.177c-66.271 0-119.994 53.724-119.994 119.995 0 34.274 14.395 65.168 37.439 87.035l-14.814 47.809 49.922-24.615c14.555 6.274 30.591 9.764 47.447 9.764 66.271 0 119.994-53.722 119.994-119.993s-53.723-119.995-119.994-119.995z" fill="#fff"></path><path d="m158.602 161.899c-6.181 8.717.295 19.332.295 19.332 7.854 17.434 30.468 43.463 40.782 54.75 10.315 11.285 34.21 36.144 50.867 45.531 0 0 9.991 7.403 19.228 2.028 0 0 16.434-9.627 26.291-25.2 0 0 3.423-4.58.084-9.521-7.241-10.891-15.984-18.611-21.573-23.547-1.988-1.755-5.054-3.953-8.083-2.484-4.447 2.153-8.042 5.912-11.269 9.597-2.642 3.018-5.947 7.127-10.243 6.958-9.553-.373-17.118-6.606-23.1-12.899-6.106-6.429-12.65-13.253-17.135-20.974-2.41-4.148-4.611-9.793-4.352-14.914.218-4.292 4.608-7.213 7.85-9.574 3.961-2.882 8.025-6.127 10.571-10.363 1.733-2.885-.18-6.135-1.75-8.272-4.413-6.01-11.318-15.41-21.514-23.601-4.622-3.769-9.49-.769-9.49-.769-16.395 8.417-27.459 23.922-27.459 23.922z" fill="#3aaa35"></path></g></g></svg>